# xmcd
#
# Track frame offsets:
#	150
#	24089
#	44325
#	62118
#	102554
#	115901
#	129259
#	141032
#
# Disc length: 2677 seconds
#
# Revision: 1
# Processed by: cddbd v1.5PL3 Copyright (c) Steve Scherf et al.
# Submitted via: audiograbber 1.82.00
#
DISCID=670a7308
DTITLE=Nick Gravenites - My Labors
DYEAR=1969
DGENRE=
TTITLE0=Killing My Love
TTITLE1=Gypsy Good Time
TTITLE2=Holy Moly
TTITLE3=Moon Tune
TTITLE4=My Labors
TTITLE5=Throw Your Dog A Bone
TTITLE6=As Good As You've Been To This World
TTITLE7=Wintry Country Side
EXTD=
EXTT0=
EXTT1=
EXTT2=
EXTT3=
EXTT4=
EXTT5=
EXTT6=
EXTT7=
PLAYORDER=
